<svg width="23" height="23" viewBox="0 0 23 23" fill="none" xmlns="http://www.w3.org/2000/svg">
<path d="M16.7741 0H6.22588C2.79287 0 0 2.79287 0 6.22588V16.7743C0 20.2071 2.79287 23 6.22588 23H16.7743C20.2071 23 23 20.2071 23 16.7743V6.22588C23 2.79287 20.2071 0 16.7741 0V0ZM21.6516 16.7743C21.6516 19.4636 19.4636 21.6516 16.7741 21.6516H6.22588C3.53636 21.6516 1.34836 19.4636 1.34836 16.7743V6.22588C1.34836 3.53636 3.53636 1.34836 6.22588 1.34836H16.7743C19.4636 1.34836 21.6516 3.53636 21.6516 6.22588V16.7743Z" fill="#828282"/>
<path d="M11.4998 5.21094C8.03206 5.21094 5.21094 8.03206 5.21094 11.4998C5.21094 14.9676 8.03206 17.7887 11.4998 17.7887C14.9676 17.7887 17.7887 14.9676 17.7887 11.4998C17.7887 8.03206 14.9676 5.21094 11.4998 5.21094ZM11.4998 16.4403C8.77573 16.4403 6.55929 14.2241 6.55929 11.4998C6.55929 8.77573 8.77573 6.55929 11.4998 6.55929C14.2241 6.55929 16.4403 8.77573 16.4403 11.4998C16.4403 14.2241 14.2241 16.4403 11.4998 16.4403Z" fill="#828282"/>
<path d="M17.9393 2.97754C16.9146 2.97754 16.0811 3.81122 16.0811 4.83583C16.0811 5.86061 16.9146 6.69429 17.9393 6.69429C18.9641 6.69429 19.7978 5.86061 19.7978 4.83583C19.7978 3.81105 18.9641 2.97754 17.9393 2.97754ZM17.9393 5.34576C17.6582 5.34576 17.4294 5.11694 17.4294 4.83583C17.4294 4.55454 17.6582 4.32589 17.9393 4.32589C18.2206 4.32589 18.4494 4.55454 18.4494 4.83583C18.4494 5.11694 18.2206 5.34576 17.9393 5.34576Z" fill="#828282"/>
</svg>
