<svg width="28" height="17" viewBox="0 0 28 17" fill="none" xmlns="http://www.w3.org/2000/svg">
<path d="M26.7559 13.1217C26.1468 12.3918 25.4587 11.74 24.7932 11.1098C24.5594 10.8882 24.3174 10.6591 24.0845 10.4317C24.0844 10.4316 24.0844 10.4316 24.0843 10.4315C23.7709 10.1259 23.6175 9.90894 23.6015 9.7487C23.5858 9.5912 23.6934 9.35752 23.941 9.01211C24.3111 8.49258 24.7057 7.97217 25.0874 7.46893C25.4267 7.02159 25.7775 6.55899 26.1137 6.09376L26.1892 5.9893C26.8452 5.08138 27.5234 4.14255 27.8868 2.99849C27.9906 2.67047 28.0984 2.18506 27.8384 1.75893C27.5784 1.3327 27.0962 1.20637 26.7563 1.14851C26.5904 1.12007 26.4329 1.11772 26.2863 1.11772L22.0313 1.11395C21.2956 1.1017 20.7853 1.45039 20.5071 2.15061C20.2845 2.70984 20.0217 3.35795 19.7171 3.97275C19.1344 5.15964 18.394 6.52666 17.3208 7.66565L17.2731 7.7164C17.2001 7.79438 17.0807 7.92191 17.0194 7.95117C16.9031 7.87811 16.769 7.46024 16.7751 7.24132C16.7752 7.23591 16.7753 7.23055 16.7753 7.22519L16.7715 2.3086C16.7715 2.28361 16.7698 2.25862 16.7664 2.23384C16.671 1.53242 16.485 0.829243 15.3748 0.610164C15.3392 0.603109 15.303 0.599609 15.2668 0.599609H10.8406C10.0079 0.599609 9.56746 0.980947 9.21434 1.39439C9.11213 1.51492 8.84055 1.83495 8.97891 2.22619C9.11891 2.62207 9.53607 2.70109 9.67301 2.72702C10.1554 2.81856 10.4048 3.09118 10.482 3.61236C10.6346 4.62501 10.6533 5.70832 10.541 7.01989C10.5096 7.37203 10.4513 7.63967 10.3573 7.86225C10.3312 7.92388 10.3084 7.96205 10.2924 7.98453C10.2669 7.97425 10.2273 7.95456 10.1724 7.91699C9.83341 7.68506 9.57796 7.3245 9.33094 6.97592C8.34426 5.58286 7.51432 4.04428 6.79337 2.27158C6.49647 1.54516 5.93833 1.13943 5.2228 1.12893C3.85954 1.10624 2.59872 1.10678 1.36956 1.13068C0.789815 1.14074 0.383267 1.32324 0.161016 1.67318C-0.0615081 2.02379 -0.0533596 2.4708 0.185297 3.00204C1.89133 6.79573 3.44042 9.55549 5.20792 11.9505C6.45245 13.6366 7.70524 14.807 9.15047 15.6339C10.6689 16.5026 12.3814 16.9284 14.3681 16.9283C14.594 16.9283 14.8239 16.9228 15.0568 16.9117C16.2825 16.8559 16.7812 16.3683 16.8356 15.1745C16.8661 14.5436 16.9364 14.0325 17.18 13.5884C17.2481 13.4641 17.325 13.3808 17.3856 13.3655C17.45 13.3495 17.5643 13.3889 17.6913 13.4714C17.9236 13.6222 18.1236 13.8268 18.288 14.0063C18.4547 14.1888 18.6231 14.3773 18.7862 14.5596C19.133 14.9477 19.4917 15.3491 19.8676 15.7319C20.7176 16.5983 21.6975 16.9957 22.7812 16.9125L26.6752 16.9143C26.6754 16.9143 26.6754 16.9143 26.6755 16.9143C26.6878 16.9143 26.7002 16.9139 26.7125 16.9131C27.1617 16.8832 27.55 16.6345 27.7781 16.2307C28.0527 15.7444 28.0485 15.1284 27.7668 14.5824C27.4728 14.0147 27.0913 13.526 26.7559 13.1217ZM26.8068 15.6822C26.7531 15.7773 26.6868 15.7946 26.6527 15.7988L22.7594 15.797C22.7593 15.797 22.7592 15.797 22.7591 15.797C22.7437 15.797 22.7283 15.7976 22.7131 15.7989C21.9461 15.8628 21.2941 15.5932 20.6637 14.9506C20.3061 14.5863 19.9562 14.1949 19.6179 13.8163C19.453 13.6319 19.2825 13.4411 19.1112 13.2536C18.8988 13.0216 18.6363 12.755 18.2989 12.5359C17.7938 12.2081 17.3752 12.218 17.1131 12.284C16.8537 12.3494 16.485 12.5359 16.202 13.0523C15.8354 13.7206 15.7545 14.4415 15.7216 15.1225C15.7025 15.539 15.6321 15.649 15.6027 15.677C15.5641 15.7136 15.4353 15.778 15.0054 15.7977C12.9395 15.8948 11.2058 15.5248 9.70445 14.6658C8.3984 13.9186 7.25477 12.8452 6.10551 11.2882C4.38695 8.95967 2.87484 6.26312 1.20276 2.54491C1.14217 2.41021 1.12346 2.32616 1.11805 2.28115C1.16071 2.26715 1.24405 2.24872 1.39018 2.24604C2.60687 2.22247 3.85451 2.22181 5.20546 2.24434C5.39042 2.24708 5.60102 2.30258 5.76049 2.69278C6.51376 4.545 7.38389 6.15692 8.42077 7.6208C8.69607 8.00936 9.03874 8.49302 9.54236 8.8376C10.0036 9.15348 10.378 9.13839 10.6108 9.07014C10.8438 9.00183 11.1671 8.81207 11.3849 8.29647C11.5254 7.96413 11.6103 7.5899 11.6524 7.11707C11.7725 5.71417 11.7512 4.54779 11.5854 3.44764C11.4685 2.65942 11.0615 2.09001 10.4204 1.79924C10.5343 1.73996 10.6626 1.71524 10.8408 1.71524H15.209C15.4548 1.77036 15.5035 1.83511 15.5202 1.85726C15.5909 1.95138 15.6314 2.17401 15.6561 2.34798L15.6598 7.21923C15.65 7.68621 15.8769 8.72188 16.6497 9.00588C16.656 9.00823 16.6624 9.01042 16.6688 9.01249C17.3723 9.2424 17.8377 8.74578 18.0875 8.47896L18.132 8.4316C19.3076 7.1839 20.0992 5.72604 20.7176 4.4663C21.04 3.81579 21.313 3.14292 21.5438 2.5629C21.6593 2.27201 21.7644 2.22411 22.0152 2.22941C22.0186 2.22952 22.022 2.22952 22.0255 2.22952L26.286 2.2333C26.3851 2.2333 26.4885 2.23444 26.5687 2.24817C26.7717 2.28273 26.8553 2.32484 26.8829 2.34229C26.8857 2.37461 26.8851 2.46758 26.8237 2.66161C26.5147 3.63445 25.9174 4.461 25.2852 5.33611L25.2097 5.44073C24.8812 5.89529 24.5343 6.35265 24.1989 6.79502C23.8122 7.30476 23.4126 7.83179 23.0336 8.36368C22.2235 9.49402 22.2947 10.2441 23.3057 11.2302C23.5446 11.4635 23.7895 11.6955 24.0264 11.9198C24.6981 12.556 25.3325 13.1568 25.8987 13.8353C26.1951 14.1926 26.5311 14.6218 26.776 15.0947C26.9037 15.3423 26.8724 15.5659 26.8068 15.6822Z" fill="#828282"/>
<path d="M4.06813 4.04152C3.98621 3.87943 3.90499 3.7169 3.82455 3.55404C3.68805 3.27792 3.3538 3.16449 3.07746 3.301C2.80129 3.43744 2.68797 3.77191 2.82442 4.04809C2.9064 4.21401 2.98914 4.3796 3.07254 4.54471C3.1707 4.73896 3.36709 4.85096 3.57074 4.85096C3.65529 4.85096 3.7412 4.83165 3.82187 4.79091C4.09689 4.65189 4.20709 4.31644 4.06813 4.04152Z" fill="#828282"/>
<path d="M7.566 9.82748C6.65141 8.5883 5.79576 7.24238 4.95029 5.71281C4.80127 5.4432 4.46187 5.34553 4.19232 5.4945C3.92276 5.64352 3.82498 5.98292 3.97401 6.25247C4.84332 7.82508 5.72472 9.2112 6.66852 10.49C6.7779 10.6382 6.94672 10.7165 7.11773 10.7165C7.23279 10.7165 7.34884 10.6811 7.44848 10.6074C7.69627 10.4246 7.74888 10.0754 7.566 9.82748Z" fill="#828282"/>
</svg>
