<svg width="49" height="49" viewBox="0 0 49 49" fill="none" xmlns="http://www.w3.org/2000/svg">
<path d="M46.8227 24.7144C45.7569 23.437 44.5527 22.2965 43.3881 21.1936C42.9789 20.8059 42.5555 20.405 42.1478 20.0069C42.1477 20.0068 42.1476 20.0067 42.1475 20.0066C41.5991 19.4718 41.3307 19.0921 41.3027 18.8117C41.2751 18.5361 41.4634 18.1271 41.8967 17.5227C42.5445 16.6135 43.235 15.7028 43.903 14.8221C44.4968 14.0392 45.1106 13.2297 45.699 12.4155L45.8311 12.2327C46.979 10.6439 48.1659 9.00093 48.802 6.99882C48.9836 6.42479 49.1723 5.57532 48.7173 4.8296C48.2621 4.08369 47.4183 3.86261 46.8236 3.76136C46.5331 3.71159 46.2575 3.70748 46.001 3.70748L38.5547 3.70087C37.2673 3.67944 36.3742 4.28964 35.8875 5.51503C35.498 6.49369 35.0379 7.62787 34.5049 8.70377C33.4852 10.7808 32.1895 13.1731 30.3114 15.1663L30.228 15.2552C30.1001 15.3916 29.8912 15.6148 29.7839 15.666C29.5804 15.5382 29.3457 14.8069 29.3564 14.4238C29.3567 14.4143 29.3568 14.4049 29.3568 14.3955L29.3502 5.79152C29.3502 5.74778 29.3471 5.70404 29.3413 5.66069C29.1743 4.4332 28.8487 3.20264 26.9059 2.81925C26.8436 2.80691 26.7802 2.80078 26.7169 2.80078H18.9711C17.5138 2.80078 16.7431 3.46812 16.1251 4.19164C15.9462 4.40257 15.471 4.96263 15.7131 5.64729C15.9581 6.34009 16.6881 6.47838 16.9278 6.52374C17.7719 6.68395 18.2084 7.16103 18.3435 8.07309C18.6106 9.84523 18.6433 11.741 18.4467 14.0363C18.3918 14.6525 18.2898 15.1209 18.1252 15.5104C18.0796 15.6183 18.0396 15.6851 18.0117 15.7244C17.9671 15.7064 17.8977 15.6719 17.8016 15.6062C17.2085 15.2003 16.7614 14.5693 16.3291 13.9593C14.6025 11.5215 13.1501 8.82895 11.8884 5.72672C11.3688 4.45549 10.3921 3.74547 9.1399 3.7271C6.7542 3.68738 4.54776 3.68834 2.39673 3.73016C1.38218 3.74777 0.670717 4.06713 0.281778 4.67954C-0.107639 5.29309 -0.0933793 6.07537 0.32427 7.00504C3.30983 13.644 6.02073 18.4736 9.11386 22.6648C11.2918 25.6155 13.4842 27.6638 16.0133 29.1108C18.6706 30.6311 21.6675 31.3761 25.1442 31.376C25.5395 31.376 25.9418 31.3664 26.3494 31.3469C28.4944 31.2492 29.3671 30.396 29.4623 28.3069C29.5157 27.2028 29.6386 26.3083 30.065 25.5312C30.1842 25.3137 30.3188 25.1678 30.4248 25.1411C30.5376 25.113 30.7375 25.182 30.9598 25.3264C31.3662 25.5904 31.7162 25.9483 32.004 26.2625C32.2957 26.5819 32.5905 26.9117 32.8758 27.2307C33.4828 27.9099 34.1105 28.6123 34.7682 29.2822C36.2557 30.7986 37.9706 31.4939 39.8671 31.3483L46.6817 31.3514C46.6819 31.3514 46.682 31.3514 46.6821 31.3514C46.7037 31.3514 46.7253 31.3508 46.7469 31.3493C47.533 31.297 48.2125 30.8618 48.6116 30.1551C49.0922 29.3041 49.0849 28.2262 48.5918 27.2706C48.0773 26.2771 47.4098 25.422 46.8227 24.7144ZM46.9118 29.1953C46.8179 29.3618 46.702 29.3921 46.6421 29.3994L39.829 29.3962C39.8288 29.3962 39.8286 29.3962 39.8283 29.3962C39.8015 29.3962 39.7746 29.3973 39.7479 29.3996C38.4056 29.5113 37.2647 29.0395 36.1615 27.915C35.5357 27.2774 34.9234 26.5925 34.3312 25.93C34.0427 25.6072 33.7444 25.2733 33.4446 24.9452C33.0729 24.5393 32.6135 24.0727 32.0231 23.6893C31.1391 23.1156 30.4066 23.1329 29.9479 23.2485C29.494 23.3629 28.8488 23.6892 28.3535 24.593C27.7119 25.7624 27.5704 27.024 27.5128 28.2158C27.4794 28.9447 27.3562 29.1372 27.3047 29.1861C27.2372 29.2503 27.0117 29.363 26.2594 29.3974C22.6441 29.5673 19.6101 28.9199 16.9828 27.4167C14.6972 26.109 12.6959 24.2306 10.6846 21.5058C7.67716 17.4309 5.03096 12.7119 2.10483 6.20505C1.99879 5.96933 1.96606 5.82224 1.95659 5.74347C2.03124 5.71897 2.17709 5.68672 2.43281 5.68203C4.56202 5.64078 6.7454 5.63963 9.10956 5.67906C9.43323 5.68385 9.80178 5.78099 10.0809 6.46383C11.3991 9.70521 12.9218 12.5261 14.7363 15.0879C15.2181 15.7678 15.8178 16.6142 16.6991 17.2173C17.5064 17.7701 18.1615 17.7436 18.569 17.6242C18.9767 17.5047 19.5425 17.1726 19.9236 16.2703C20.1694 15.6887 20.3181 15.0338 20.3917 14.2063C20.6019 11.7513 20.5646 9.7101 20.2744 7.78483C20.0699 6.40545 19.3577 5.40899 18.2357 4.90013C18.435 4.79639 18.6595 4.75313 18.9713 4.75313H26.6158C27.0459 4.8496 27.1311 4.96291 27.1603 5.00167C27.2841 5.16638 27.3549 5.55599 27.3982 5.86042L27.4047 14.3851C27.3875 15.2023 27.7846 17.0148 29.1369 17.5117C29.148 17.5159 29.1592 17.5197 29.1704 17.5233C30.4016 17.9257 31.2159 17.0566 31.6531 16.5896L31.731 16.5068C33.7882 14.3233 35.1735 11.772 36.2558 9.5675C36.8199 8.4291 37.2977 7.25157 37.7016 6.23654C37.9038 5.72749 38.0877 5.64365 38.5266 5.65294C38.5326 5.65313 38.5386 5.65313 38.5447 5.65313L46.0005 5.65973C46.1739 5.65973 46.3548 5.66174 46.4952 5.68576C46.8505 5.74625 46.9968 5.81994 47.0451 5.85047C47.05 5.90703 47.0489 6.06973 46.9415 6.40928C46.4007 8.11175 45.3555 9.55821 44.2491 11.0897L44.1169 11.2727C43.542 12.0682 42.935 12.8686 42.348 13.6427C41.6714 14.5348 40.972 15.4571 40.3089 16.3879C38.8911 18.366 39.0157 19.6787 40.785 21.4044C41.2031 21.8126 41.6317 22.2185 42.0463 22.6111C43.2216 23.7244 44.3319 24.7759 45.3227 25.9632C45.8414 26.5886 46.4294 27.3395 46.858 28.1672C47.0815 28.6004 47.0267 28.9919 46.9118 29.1953Z" fill="#4F4F4F"/>
<path d="M7.11849 8.82291C6.97513 8.53925 6.83301 8.25481 6.69223 7.96981C6.45335 7.4866 5.86841 7.28811 5.38482 7.52699C4.90152 7.76577 4.70322 8.35109 4.942 8.8344C5.08546 9.12476 5.23026 9.41455 5.37621 9.70348C5.548 10.0434 5.89167 10.2394 6.24807 10.2394C6.39602 10.2394 6.54637 10.2056 6.68754 10.1343C7.16883 9.89106 7.36167 9.30401 7.11849 8.82291Z" fill="#4F4F4F"/>
<path d="M13.241 18.9488C11.6404 16.7803 10.1431 14.4249 8.6635 11.7482C8.4027 11.2763 7.80877 11.1054 7.33705 11.3661C6.86532 11.6269 6.69421 12.2208 6.955 12.6926C8.4763 15.4446 10.0188 17.8703 11.6704 20.1082C11.8618 20.3675 12.1572 20.5047 12.4565 20.5047C12.6579 20.5047 12.861 20.4427 13.0353 20.3137C13.469 19.9937 13.561 19.3826 13.241 18.9488Z" fill="#4F4F4F"/>
</svg>
