<svg width="22" height="22" viewBox="0 0 22 22" fill="none" xmlns="http://www.w3.org/2000/svg">
<path d="M8.07177 10.3164C10.6143 10.3164 12.6756 8.25508 12.6756 5.71224C12.6756 3.16968 10.6143 1.1084 8.07177 1.1084C5.52906 1.1084 3.46777 3.16968 3.46777 5.71224C3.47023 8.25399 5.53001 10.3138 8.07177 10.3164ZM8.07177 1.97954C10.1332 1.97954 11.8046 3.65083 11.8046 5.71224C11.8046 7.77393 10.1332 9.44522 8.07177 9.44522C6.01021 9.44522 4.33892 7.77393 4.33892 5.71224C4.34137 3.65178 6.01116 1.98186 8.07177 1.97954Z" fill="#4F4F4F"/>
<path d="M19.0918 11.2094C19.0103 11.1278 18.9 11.082 18.7848 11.082C18.6695 11.082 18.559 11.1278 18.4777 11.2094L17.3408 12.3462L14.5358 15.1513C13.2259 12.8086 10.7517 11.3576 8.06772 11.3576C3.98645 11.3576 0.663086 14.6809 0.663086 18.7621C0.663767 19.0023 0.858354 19.197 1.09859 19.1977H11.9051L11.5478 20.2648C11.4945 20.4207 11.535 20.5933 11.6524 20.709C11.7348 20.7904 11.8458 20.8357 11.9615 20.8355C12.0089 20.8346 12.0558 20.8273 12.101 20.8137L15.1978 19.7813C15.2023 19.7813 15.2023 19.7813 15.2065 19.7769C15.2204 19.7731 15.2336 19.7671 15.2458 19.7595C15.249 19.7591 15.2522 19.7576 15.2545 19.7551C15.2676 19.7466 15.285 19.7377 15.2981 19.729C15.3112 19.7204 15.3242 19.7072 15.3372 19.6986C15.3415 19.6941 15.346 19.6941 15.346 19.6899C15.3503 19.6855 15.359 19.6812 15.3633 19.6723L20.0239 15.025L21.1609 13.8883C21.2424 13.8066 21.2882 13.6963 21.2882 13.5811C21.2882 13.4658 21.2424 13.3553 21.1609 13.274L19.0918 11.2094ZM15.0671 18.749L13.6167 17.2986L17.6457 13.2696L19.0962 14.72L15.0671 18.749ZM1.55153 18.3221C1.77814 14.9205 4.61368 12.2242 8.07208 12.2242C10.5284 12.2277 12.7765 13.605 13.8955 15.7916L12.6934 16.9936L12.6759 17.0112C12.6716 17.0154 12.6716 17.0199 12.6673 17.0199C12.6458 17.0473 12.627 17.0763 12.6107 17.107C12.6101 17.1102 12.6086 17.1132 12.6062 17.1156C12.6019 17.1288 12.5931 17.1419 12.5889 17.1549C12.5889 17.1592 12.5889 17.1592 12.5845 17.1637L12.1968 18.3265H1.55153V18.3221ZM13.1943 18.1043L14.2614 19.1714L12.6585 19.7072L13.1943 18.1043ZM19.7146 14.1015L18.2643 12.6511L18.7825 12.1329L20.2331 13.5833L19.7146 14.1015Z" fill="#4F4F4F"/>
</svg>
