<svg width="45" height="45" viewBox="0 0 45 45" fill="none" xmlns="http://www.w3.org/2000/svg">
<g clip-path="url(#clip0)">
<path d="M22.5709 1.57816C30.8379 1.57816 37.5636 8.30382 37.5636 16.5709C37.5636 17.0067 37.917 17.36 38.3527 17.36C38.7885 17.36 39.1418 17.0067 39.1418 16.5709C39.1418 7.43361 31.7081 0 22.5709 0C13.4337 0 6 7.43361 6 16.5709C6 22.39 7.5409 28.1081 10.4562 33.1071C13.2847 37.9571 17.335 42.0317 22.1692 44.8902C22.2931 44.9634 22.4319 45.0001 22.5708 45.0001C22.7097 45.0001 22.8485 44.9634 22.9724 44.8905C27.1953 42.3935 30.8712 38.9174 33.6027 34.8381C36.3926 30.6715 38.2109 25.8456 38.8613 20.882C38.9179 20.45 38.6136 20.0537 38.1815 19.9971C37.7487 19.94 37.3531 20.2448 37.2965 20.677C36.0797 29.9641 30.5877 38.3829 22.5706 43.2902C13.3107 37.6241 7.57816 27.4303 7.57816 16.5709C7.57816 8.30382 14.3039 1.57816 22.5709 1.57816Z" fill="#4F4F4F"/>
<path d="M22.5716 6.3125C16.9153 6.3125 12.3135 10.9143 12.3135 16.5707C12.3135 17.0064 12.6668 17.3597 13.1026 17.3597C13.5383 17.3597 13.8916 17.0064 13.8916 16.5707C13.8916 11.7845 17.7855 7.89067 22.5716 7.89067C27.3578 7.89067 31.2516 11.7845 31.2516 16.5707C31.2516 21.3568 27.3578 25.2507 22.5716 25.2507C18.8986 25.2507 15.6087 22.9252 14.3854 19.464C14.2401 19.0531 13.7895 18.8378 13.3784 18.983C12.9676 19.1283 12.7522 19.5792 12.8974 19.99C14.3432 24.0805 18.2311 26.8288 22.5716 26.8288C28.228 26.8288 32.8298 22.227 32.8298 16.5707C32.8298 10.9143 28.228 6.3125 22.5716 6.3125Z" fill="#4F4F4F"/>
</g>
<defs>
<clipPath id="clip0">
<rect width="45" height="45" fill="white"/>
</clipPath>
</defs>
</svg>
