<svg width="45" height="45" viewBox="0 0 45 45" fill="none" xmlns="http://www.w3.org/2000/svg">
<path d="M22.5 0C10.0935 0 0 10.0935 0 22.5C0 34.9065 10.0935 45 22.5 45C34.9065 45 45 34.9065 45 22.5C45 10.0935 34.9065 0 22.5 0ZM22.5 43.5C10.9207 43.5 1.5 34.0793 1.5 22.5C1.5 10.9207 10.9207 1.5 22.5 1.5C34.0793 1.5 43.5 10.9207 43.5 22.5C43.5 34.0793 34.0793 43.5 22.5 43.5Z" fill="#4F4F4F"/>
<path d="M22.5 4.5C22.086 4.5 21.75 4.83525 21.75 5.25V22.5H10.5C10.086 22.5 9.75 22.8353 9.75 23.25C9.75 23.6648 10.086 24 10.5 24H22.5C22.914 24 23.25 23.6648 23.25 23.25V5.25C23.25 4.83525 22.914 4.5 22.5 4.5Z" fill="#4F4F4F"/>
</svg>
