<svg width="52" height="47" viewBox="0 0 52 47" fill="none" xmlns="http://www.w3.org/2000/svg">
<g clip-path="url(#clip0)">
<mask id="path-2-inside-1" fill="white">
<path d="M51.671 11.1096C51.3892 9.13282 50.9568 7.15114 50.1138 5.28831C49.6973 4.33666 49.1512 3.44698 48.491 2.64446C47.8249 1.81419 46.9771 1.14727 46.0128 0.694869C45.0485 0.242464 43.9932 0.0165834 42.9278 0.0345551L42.1699 0.0175781L41.4119 0.0612364C40.9089 0.0940634 40.4078 0.152352 39.9106 0.235877C37.9234 0.582731 36.0771 1.3007 34.2478 1.91921C32.4242 2.56004 30.5385 3.00878 28.6215 3.25812C26.6908 3.48614 24.7431 3.53648 22.8032 3.4085C24.7436 3.66356 26.7035 3.73988 28.6579 3.63651C30.6208 3.49037 32.5628 3.13834 34.4519 2.58624C36.3419 2.06717 38.1785 1.43653 40.0539 1.20125C40.5208 1.14436 40.9903 1.11116 41.4605 1.1018H42.165L42.8671 1.15031C43.7595 1.16866 44.6366 1.38491 45.4349 1.78338C47.0091 2.58139 48.0805 4.15315 48.7704 5.84619C49.4603 7.53923 49.8175 9.42631 50.0167 11.3037C50.3835 15.0779 50.1551 18.9296 49.645 22.7305C49.3899 24.6345 49.0595 26.5265 48.6732 28.4136C48.287 30.3006 47.8716 32.178 47.3614 34.0166C46.872 35.841 46.2426 37.625 45.4787 39.3528C44.7061 41.0216 43.7295 42.6031 42.4396 43.5806C42.1226 43.8132 41.7823 44.0124 41.4241 44.1748C41.0662 44.3269 40.6921 44.4375 40.309 44.5047C39.908 44.573 39.5008 44.5982 39.0944 44.5799C38.8879 44.5799 38.6741 44.5532 38.4627 44.5362C38.2673 44.5164 38.0734 44.484 37.8821 44.4392C37.723 44.4028 37.5677 44.3516 37.4181 44.2864C37.2596 44.2096 37.1069 44.1213 36.9614 44.022C36.804 43.9164 36.6531 43.8014 36.5095 43.6776C36.3662 43.5345 36.2156 43.4108 36.0771 43.2483C35.4866 42.5834 34.9657 41.8601 34.5223 41.0895C33.5506 39.4935 32.7392 37.7301 31.6411 35.9764C31.3574 35.5211 31.0459 35.0837 30.7083 34.6666C30.3403 34.1979 29.9104 33.7809 29.4304 33.4272C28.8622 33.0015 28.1921 32.7322 27.487 32.6462C27.3023 32.6462 27.1129 32.6268 26.9282 32.6268C26.7436 32.6268 26.5663 32.668 26.3889 32.6947C26.0614 32.7597 25.742 32.8605 25.4366 32.9954C24.8667 33.2467 24.3422 33.5901 23.8843 34.0117C23.4701 34.3887 23.0897 34.8009 22.7473 35.2439C22.1323 36.0589 21.5645 36.9085 21.0468 37.7883C20.0265 39.4547 19.0693 41.0895 17.8546 42.3096C17.2896 42.897 16.6155 43.369 15.8699 43.6994C15.1399 43.9964 14.3496 44.1153 13.5644 44.0463C12.7578 43.9978 11.9724 43.7691 11.2663 43.3768C10.5131 42.9727 9.8259 42.4566 9.22806 41.8463L8.98513 41.6183L8.76406 41.3757L8.32192 40.8736L7.91136 40.3327C7.76949 40.1548 7.63731 39.9694 7.51538 39.7773L7.13397 39.2073C7.01008 39.0132 6.89104 38.8119 6.77929 38.613C6.53636 38.2201 6.32743 37.8053 6.11122 37.4002C5.26562 35.7175 4.5682 33.9645 4.02685 32.161C3.47229 30.3417 3.02693 28.491 2.69314 26.6187C2.34977 24.7434 2.11535 22.85 1.99106 20.9477C1.86264 19.0513 1.86833 17.1481 2.00807 15.2525C2.15354 13.3698 2.50215 11.5083 3.04782 9.7004C3.60414 7.91276 4.34509 6.16879 5.47716 4.75226C6.60924 3.33574 8.16887 2.32671 9.95687 2.10841C11.74 1.86585 13.6227 2.29517 15.3549 3.03254C16.2311 3.40675 17.0788 3.84452 17.8911 4.34234C18.6928 4.84201 19.5406 5.38048 20.3957 5.86802C22.1183 6.84922 23.9941 7.5339 25.9443 7.89336C26.9164 8.0667 27.9063 8.11803 28.8911 8.04617C29.8718 7.99241 30.8347 7.76234 31.7335 7.36701C30.8198 7.69898 29.8536 7.86332 28.8814 7.85212C27.9189 7.85968 26.9592 7.74723 26.0245 7.5174C24.1545 7.06498 22.3735 6.30336 20.7553 5.26406C19.9463 4.74499 19.1786 4.18954 18.3502 3.62681C17.5244 3.06958 16.6589 2.57344 15.7606 2.14236C14.8494 1.70139 13.8943 1.35749 12.9109 1.11635C11.9007 0.86998 10.8572 0.788074 9.82082 0.873799C8.76125 0.969172 7.73425 1.28919 6.80844 1.81249C5.88718 2.33382 5.06488 3.0128 4.3791 3.81842C3.01381 5.40959 2.1514 7.29182 1.48819 9.18375C0.839773 11.0878 0.411851 13.0597 0.212787 15.0609C0.0163545 17.0426 -0.0396602 19.0357 0.0451619 21.0253C0.19297 25.0026 0.824366 28.9471 1.92547 32.7723C2.47586 34.7066 3.1936 36.5894 4.07057 38.3996C4.29893 38.8532 4.52 39.3092 4.78237 39.7506C4.91113 39.9713 5.02531 40.1969 5.16621 40.4152L5.58406 41.0653C5.7201 41.2836 5.86829 41.497 6.02619 41.7032L6.4902 42.3314L7.00279 42.9329L7.2603 43.2337L7.54453 43.5175C8.29903 44.3111 9.17373 44.9815 10.1366 45.504C11.139 46.0622 12.252 46.3934 13.3968 46.4742C14.5607 46.5753 15.7319 46.4 16.8149 45.9625C17.8609 45.5136 18.8091 44.8652 19.6062 44.0535C21.1488 42.5036 22.1619 40.7257 23.1822 39.0933C23.6559 38.2998 24.1742 37.5337 24.7345 36.7987C25.2738 36.1171 25.869 35.552 26.4569 35.3118C26.5968 35.2506 26.7425 35.2035 26.8918 35.1712C26.9539 35.1665 27.0156 35.1576 27.0764 35.1445C27.133 35.1483 27.1898 35.1483 27.2465 35.1445C27.5124 35.1842 27.7635 35.292 27.9753 35.4574C28.2797 35.683 28.5519 35.949 28.7842 36.2481C29.061 36.587 29.3166 36.9426 29.5495 37.3129C30.5212 38.8532 31.3715 40.6262 32.4258 42.3581C32.9604 43.2723 33.5881 44.129 34.2988 44.9146C34.4786 45.1208 34.7021 45.3124 34.9062 45.5089C35.1319 45.703 35.3697 45.8829 35.618 46.0474C35.8762 46.2202 36.1475 46.3726 36.4294 46.5034C36.726 46.6327 37.0343 46.7334 37.3501 46.8041C37.6336 46.8678 37.9208 46.914 38.2101 46.9424C38.4846 46.9642 38.7542 46.9933 39.0361 46.9958C39.6055 47.0159 40.1755 46.9761 40.7366 46.8769C41.3137 46.7746 41.8765 46.6036 42.4128 46.3675C42.9403 46.1221 43.4396 45.8204 43.902 45.4676C44.762 44.776 45.5066 43.9524 46.1079 43.0275C46.6764 42.1566 47.1713 41.2398 47.5873 40.2867C48.374 38.4397 49.0164 36.5348 49.5089 34.589C50.4819 30.7677 51.1849 26.883 51.6127 22.9633C52.0257 19.0533 52.1982 15.0754 51.671 11.1096Z"/>
</mask>
<path d="M51.671 11.1096C51.3892 9.13282 50.9568 7.15114 50.1138 5.28831C49.6973 4.33666 49.1512 3.44698 48.491 2.64446C47.8249 1.81419 46.9771 1.14727 46.0128 0.694869C45.0485 0.242464 43.9932 0.0165834 42.9278 0.0345551L42.1699 0.0175781L41.4119 0.0612364C40.9089 0.0940634 40.4078 0.152352 39.9106 0.235877C37.9234 0.582731 36.0771 1.3007 34.2478 1.91921C32.4242 2.56004 30.5385 3.00878 28.6215 3.25812C26.6908 3.48614 24.7431 3.53648 22.8032 3.4085C24.7436 3.66356 26.7035 3.73988 28.6579 3.63651C30.6208 3.49037 32.5628 3.13834 34.4519 2.58624C36.3419 2.06717 38.1785 1.43653 40.0539 1.20125C40.5208 1.14436 40.9903 1.11116 41.4605 1.1018H42.165L42.8671 1.15031C43.7595 1.16866 44.6366 1.38491 45.4349 1.78338C47.0091 2.58139 48.0805 4.15315 48.7704 5.84619C49.4603 7.53923 49.8175 9.42631 50.0167 11.3037C50.3835 15.0779 50.1551 18.9296 49.645 22.7305C49.3899 24.6345 49.0595 26.5265 48.6732 28.4136C48.287 30.3006 47.8716 32.178 47.3614 34.0166C46.872 35.841 46.2426 37.625 45.4787 39.3528C44.7061 41.0216 43.7295 42.6031 42.4396 43.5806C42.1226 43.8132 41.7823 44.0124 41.4241 44.1748C41.0662 44.3269 40.6921 44.4375 40.309 44.5047C39.908 44.573 39.5008 44.5982 39.0944 44.5799C38.8879 44.5799 38.6741 44.5532 38.4627 44.5362C38.2673 44.5164 38.0734 44.484 37.8821 44.4392C37.723 44.4028 37.5677 44.3516 37.4181 44.2864C37.2596 44.2096 37.1069 44.1213 36.9614 44.022C36.804 43.9164 36.6531 43.8014 36.5095 43.6776C36.3662 43.5345 36.2156 43.4108 36.0771 43.2483C35.4866 42.5834 34.9657 41.8601 34.5223 41.0895C33.5506 39.4935 32.7392 37.7301 31.6411 35.9764C31.3574 35.5211 31.0459 35.0837 30.7083 34.6666C30.3403 34.1979 29.9104 33.7809 29.4304 33.4272C28.8622 33.0015 28.1921 32.7322 27.487 32.6462C27.3023 32.6462 27.1129 32.6268 26.9282 32.6268C26.7436 32.6268 26.5663 32.668 26.3889 32.6947C26.0614 32.7597 25.742 32.8605 25.4366 32.9954C24.8667 33.2467 24.3422 33.5901 23.8843 34.0117C23.4701 34.3887 23.0897 34.8009 22.7473 35.2439C22.1323 36.0589 21.5645 36.9085 21.0468 37.7883C20.0265 39.4547 19.0693 41.0895 17.8546 42.3096C17.2896 42.897 16.6155 43.369 15.8699 43.6994C15.1399 43.9964 14.3496 44.1153 13.5644 44.0463C12.7578 43.9978 11.9724 43.7691 11.2663 43.3768C10.5131 42.9727 9.8259 42.4566 9.22806 41.8463L8.98513 41.6183L8.76406 41.3757L8.32192 40.8736L7.91136 40.3327C7.76949 40.1548 7.63731 39.9694 7.51538 39.7773L7.13397 39.2073C7.01008 39.0132 6.89104 38.8119 6.77929 38.613C6.53636 38.2201 6.32743 37.8053 6.11122 37.4002C5.26562 35.7175 4.5682 33.9645 4.02685 32.161C3.47229 30.3417 3.02693 28.491 2.69314 26.6187C2.34977 24.7434 2.11535 22.85 1.99106 20.9477C1.86264 19.0513 1.86833 17.1481 2.00807 15.2525C2.15354 13.3698 2.50215 11.5083 3.04782 9.7004C3.60414 7.91276 4.34509 6.16879 5.47716 4.75226C6.60924 3.33574 8.16887 2.32671 9.95687 2.10841C11.74 1.86585 13.6227 2.29517 15.3549 3.03254C16.2311 3.40675 17.0788 3.84452 17.8911 4.34234C18.6928 4.84201 19.5406 5.38048 20.3957 5.86802C22.1183 6.84922 23.9941 7.5339 25.9443 7.89336C26.9164 8.0667 27.9063 8.11803 28.8911 8.04617C29.8718 7.99241 30.8347 7.76234 31.7335 7.36701C30.8198 7.69898 29.8536 7.86332 28.8814 7.85212C27.9189 7.85968 26.9592 7.74723 26.0245 7.5174C24.1545 7.06498 22.3735 6.30336 20.7553 5.26406C19.9463 4.74499 19.1786 4.18954 18.3502 3.62681C17.5244 3.06958 16.6589 2.57344 15.7606 2.14236C14.8494 1.70139 13.8943 1.35749 12.9109 1.11635C11.9007 0.86998 10.8572 0.788074 9.82082 0.873799C8.76125 0.969172 7.73425 1.28919 6.80844 1.81249C5.88718 2.33382 5.06488 3.0128 4.3791 3.81842C3.01381 5.40959 2.1514 7.29182 1.48819 9.18375C0.839773 11.0878 0.411851 13.0597 0.212787 15.0609C0.0163545 17.0426 -0.0396602 19.0357 0.0451619 21.0253C0.19297 25.0026 0.824366 28.9471 1.92547 32.7723C2.47586 34.7066 3.1936 36.5894 4.07057 38.3996C4.29893 38.8532 4.52 39.3092 4.78237 39.7506C4.91113 39.9713 5.02531 40.1969 5.16621 40.4152L5.58406 41.0653C5.7201 41.2836 5.86829 41.497 6.02619 41.7032L6.4902 42.3314L7.00279 42.9329L7.2603 43.2337L7.54453 43.5175C8.29903 44.3111 9.17373 44.9815 10.1366 45.504C11.139 46.0622 12.252 46.3934 13.3968 46.4742C14.5607 46.5753 15.7319 46.4 16.8149 45.9625C17.8609 45.5136 18.8091 44.8652 19.6062 44.0535C21.1488 42.5036 22.1619 40.7257 23.1822 39.0933C23.6559 38.2998 24.1742 37.5337 24.7345 36.7987C25.2738 36.1171 25.869 35.552 26.4569 35.3118C26.5968 35.2506 26.7425 35.2035 26.8918 35.1712C26.9539 35.1665 27.0156 35.1576 27.0764 35.1445C27.133 35.1483 27.1898 35.1483 27.2465 35.1445C27.5124 35.1842 27.7635 35.292 27.9753 35.4574C28.2797 35.683 28.5519 35.949 28.7842 36.2481C29.061 36.587 29.3166 36.9426 29.5495 37.3129C30.5212 38.8532 31.3715 40.6262 32.4258 42.3581C32.9604 43.2723 33.5881 44.129 34.2988 44.9146C34.4786 45.1208 34.7021 45.3124 34.9062 45.5089C35.1319 45.703 35.3697 45.8829 35.618 46.0474C35.8762 46.2202 36.1475 46.3726 36.4294 46.5034C36.726 46.6327 37.0343 46.7334 37.3501 46.8041C37.6336 46.8678 37.9208 46.914 38.2101 46.9424C38.4846 46.9642 38.7542 46.9933 39.0361 46.9958C39.6055 47.0159 40.1755 46.9761 40.7366 46.8769C41.3137 46.7746 41.8765 46.6036 42.4128 46.3675C42.9403 46.1221 43.4396 45.8204 43.902 45.4676C44.762 44.776 45.5066 43.9524 46.1079 43.0275C46.6764 42.1566 47.1713 41.2398 47.5873 40.2867C48.374 38.4397 49.0164 36.5348 49.5089 34.589C50.4819 30.7677 51.1849 26.883 51.6127 22.9633C52.0257 19.0533 52.1982 15.0754 51.671 11.1096Z" fill="white" stroke="#D2FFC2" stroke-width="4" mask="url(#path-2-inside-1)"/>
<path d="M10.0158 19.075C10.1704 19.7407 10.3692 20.3955 10.611 21.0348C10.7397 21.355 10.8539 21.6849 11.0021 22.005L11.488 22.9413C11.6641 23.2503 11.8563 23.5498 12.0637 23.8388C12.1682 23.9843 12.2556 24.1395 12.3747 24.2754L12.7245 24.6901L13.0816 25.0976C13.2055 25.231 13.3464 25.3402 13.48 25.4736C13.7419 25.7298 14.0229 25.9657 14.3206 26.1794C14.9108 26.6152 15.549 26.9823 16.2228 27.2734C16.558 27.419 16.902 27.5438 17.2528 27.6469C17.5962 27.7574 17.9469 27.8441 18.3023 27.9064C19.6854 28.1575 21.1016 28.1674 22.488 27.9355C23.822 27.718 25.1225 27.3308 26.358 26.7834C27.5765 26.2606 28.7201 25.5787 29.759 24.7556C29.125 24.9303 28.5006 25.0879 27.8739 25.2407C27.2471 25.3935 26.6252 25.5075 26.0033 25.6118C24.7836 25.8239 23.5487 25.9366 22.3107 25.949C19.8959 25.9878 17.5856 25.4639 15.8243 24.1371C14.9263 23.4525 14.1509 22.6209 13.531 21.6776C12.8857 20.674 12.3421 19.6088 11.9082 18.4977C11.1794 16.6058 10.6644 14.5756 10.1567 12.4896L10.1883 12.4653C10.6899 12.0894 11.2278 11.7644 11.7941 11.4951C12.5153 11.1809 13.2677 10.9435 14.0388 10.7869C13.7358 10.4035 13.3514 10.0921 12.9132 9.87525C12.475 9.65838 11.994 9.54143 11.505 9.53284C10.4964 9.50595 9.50833 9.82053 8.70152 10.4254C7.94869 10.9889 7.35179 11.7343 6.96698 12.5915C6.57054 13.4273 6.43024 14.3614 6.56371 15.2766C7.25814 14.8061 7.92714 14.2992 8.56791 13.7582C8.94203 13.4501 9.29671 13.159 9.63925 12.8874C9.4432 14.9569 9.57023 17.0443 10.0158 19.075Z" fill="#D2FFC2"/>
</g>
<defs>
<clipPath id="clip0">
<rect width="52" height="47" fill="white"/>
</clipPath>
</defs>
</svg>
