<svg width="45" height="45" viewBox="0 0 45 45" fill="none" xmlns="http://www.w3.org/2000/svg">
<g clip-path="url(#clip0)">
<path d="M10.1616 14.3965V14.1533H8.70996V14.3965C8.70996 14.8124 8.72085 15.2282 8.7419 15.6419L10.1921 15.5679C10.1725 15.1782 10.1616 14.7884 10.1616 14.3965Z" fill="#4F4F4F"/>
<path d="M10.3074 16.9736L8.86523 17.1384C9.2804 20.7943 10.5549 24.3674 12.5502 27.4702L13.771 26.6849C11.8955 23.7679 10.6986 20.4096 10.3074 16.9736Z" fill="#4F4F4F"/>
<path d="M26.7539 7.04883C25.4968 7.89802 24.0256 8.34657 22.5 8.34657C20.9743 8.34657 19.5038 7.89802 18.2467 7.04955L17.4346 8.25294C18.9326 9.26399 20.684 9.79818 22.5 9.79818C24.3159 9.79818 26.0673 9.26399 27.5661 8.25222L26.7539 7.04883Z" fill="#4F4F4F"/>
<path d="M6.53226 27.9434H5.08065C5.08065 30.7442 2.80089 33.024 0 33.024V34.4756C2.80089 34.4756 5.08065 36.7554 5.08065 39.5563H6.53226C6.53226 36.7554 8.81202 34.4756 11.6129 34.4756V33.024C8.81202 33.024 6.53226 30.7442 6.53226 27.9434ZM5.80645 36.5768C5.18226 35.3647 4.19153 34.374 2.97944 33.7498C4.19153 33.1256 5.18226 32.1349 5.80645 30.9228C6.43064 32.1349 7.42137 33.1256 8.63347 33.7498C7.42137 34.374 6.43064 35.3647 5.80645 36.5768Z" fill="#4F4F4F"/>
<path d="M39.9195 9.07305H38.5296C37.1549 5.65378 33.7901 3.2666 29.9774 3.2666C28.1774 3.2666 26.4849 3.75362 25.0826 4.67394C23.5301 5.69588 21.471 5.69588 19.9178 4.67394C18.5162 3.75362 16.8237 3.2666 15.0229 3.2666C9.94083 3.2666 5.80664 7.40079 5.80664 12.4829V14.3968C5.80664 19.6009 7.29454 24.6641 10.1085 29.0414C11.6225 31.3967 12.7345 33.9682 13.4138 36.6842L14.2035 39.8443C14.4808 40.9577 15.4758 41.7343 16.6226 41.7343C17.8674 41.7343 18.9053 40.8409 19.0889 39.6099L20.7169 28.7533C20.8512 27.8642 21.6009 27.2182 22.5002 27.2182C23.3995 27.2182 24.1492 27.8642 24.2828 28.7533L25.9108 39.6099C26.0951 40.8409 27.133 41.7343 28.3778 41.7343C29.5245 41.7343 30.5196 40.9577 30.7969 39.8443L31.5873 36.6842C32.2666 33.9675 33.3793 31.396 34.8933 29.0414C36.5474 26.4677 37.7574 23.5935 38.465 20.6105C38.4643 20.6359 38.4679 20.6606 38.4679 20.686H39.9195C39.9195 17.8851 42.1993 15.6053 45.0002 15.6053V14.1537C42.1993 14.1537 39.9195 11.8739 39.9195 9.07305ZM33.6718 28.2561C32.0714 30.7456 30.897 33.4631 30.1792 36.3329L29.3881 39.493C29.2727 39.9583 28.8568 40.2827 28.3778 40.2827C27.8574 40.2827 27.4241 39.9089 27.3471 39.3943L25.7191 28.5377C25.4782 26.9315 24.1238 25.7666 22.5002 25.7666C20.8766 25.7666 19.5222 26.9315 19.2812 28.5377L17.6533 39.3943C17.577 39.9089 17.143 40.2827 16.6226 40.2827C16.1436 40.2827 15.7277 39.9583 15.6108 39.493L14.8204 36.3329C14.1033 33.4623 12.9283 30.7449 11.3279 28.2561C8.66559 24.1139 7.25825 19.3214 7.25825 14.3968V12.4829C7.25825 8.20136 10.7414 4.71821 15.0229 4.71821C16.5391 4.71821 17.9559 5.12249 19.1201 5.88749C20.137 6.55596 21.275 6.89563 22.5002 6.89563C23.7253 6.89563 24.8634 6.55596 25.8795 5.88749C27.0445 5.12249 28.4612 4.71821 29.9774 4.71821C33.8068 4.71821 37.1107 7.57136 37.655 11.2969L37.6855 11.7694C36.7855 13.1985 35.1974 14.1537 33.3873 14.1537V15.6053C35.0915 15.6053 36.599 16.4516 37.5208 17.7428C37.0308 21.4647 35.7012 25.0989 33.6718 28.2561ZM39.1937 17.7065C38.5695 16.4944 37.5788 15.5037 36.3667 14.8795C37.5788 14.2553 38.5695 13.2646 39.1937 12.0525C39.8179 13.2646 40.8087 14.2553 42.0208 14.8795C40.8087 15.5037 39.8179 16.4944 39.1937 17.7065Z" fill="#4F4F4F"/>
</g>
<defs>
<clipPath id="clip0">
<rect width="45" height="45" fill="white"/>
</clipPath>
</defs>
</svg>
