<svg width="45" height="45" viewBox="0 0 45 45" fill="none" xmlns="http://www.w3.org/2000/svg">
<g clip-path="url(#clip0)">
<path d="M21.8247 12.9823L15.8903 11.7955V10.2209H13.0012V8.77637H5.77831C2.59229 8.77637 0 11.3687 0 14.5547C0 17.4958 2.2102 19.9256 5.05602 20.2831V38.4956C5.05602 39.6325 5.98055 40.557 7.11743 40.557H7.22288V43.4462H5.77831V44.8908H13.0012V43.4462H11.5566V40.557H11.6621C12.7989 40.557 13.7235 39.6325 13.7235 38.4956C13.7235 37.7105 13.2872 37.0034 12.5837 36.6516L10.8343 35.7769V35.0778L13.0012 32.9109V25.09L10.8343 22.9231V20.333H13.0012V18.8884H15.8903V17.3138L21.8247 16.1271C22.5715 15.9776 23.1132 15.316 23.1132 14.5547C23.1132 13.7934 22.5715 13.1318 21.8247 12.9823ZM10.112 43.4462H8.66746V40.557H10.112V43.4462ZM11.9373 37.9438C12.1482 38.0485 12.2789 38.2602 12.2789 38.4956C12.2789 38.8351 12.0023 39.1125 11.6621 39.1125H7.11743C6.77723 39.1125 6.50059 38.8351 6.50059 38.4956V20.333H9.38975V23.9444H7.94517V25.389H9.38975V26.8336H7.94517V28.2781H9.38975V29.7227H7.94517V31.1673H9.38975V32.6119H7.94517V34.0565H9.38975V36.6697L11.9373 37.9438ZM11.5566 25.688V32.3128L10.8343 33.0351V24.9657L11.5566 25.688ZM14.4458 17.4438H13.0012V15.9992H11.5566V18.8884H5.77831C3.38825 18.8884 1.44458 16.9447 1.44458 14.5547C1.44458 12.1646 3.38825 10.2209 5.77831 10.2209H11.5566V14.5547H13.0012V11.6655H14.4458V17.4438ZM21.5408 14.7107L15.8903 15.8403V13.269L21.5408 14.3987C21.6145 14.4138 21.6686 14.4796 21.6686 14.5547C21.6686 14.6298 21.6145 14.6955 21.5408 14.7107Z" fill="#4F4F4F"/>
<path d="M18.3754 27.5339L15.6726 37.6684H45.0004L42.2976 27.5339C41.961 26.2714 40.8126 25.3895 39.506 25.3895H38.1676C38.8306 23.7311 39.6786 22.1529 40.7043 20.6715C43.3724 16.8173 44.7823 12.303 44.7823 7.61612C44.7823 3.47668 41.415 0.109375 37.2756 0.109375C35.7768 0.109375 34.2824 0.583196 32.9541 1.47883C32.1704 2.00827 31.2892 2.27624 30.3365 2.27624C29.3838 2.27624 28.5026 2.00827 27.719 1.47883C26.3907 0.583196 24.8963 0.109375 23.3975 0.109375C20.2859 0.109375 17.5325 2.02849 16.4166 4.86709L16.3415 4.80425L15.4141 5.91152L18.7799 8.73205L21.2617 6.65331L22.0461 9.79237L25.2762 9.56991L24.0692 12.571L26.8103 14.2901L24.0692 16.0091L25.2762 19.0109L22.0461 18.7885L21.2617 21.9275L18.7799 19.8488L15.4141 22.6693L16.3415 23.7766L18.7799 21.7332L22.1032 24.5177L22.1118 24.4837C22.2462 24.7835 22.3762 25.0847 22.4983 25.3895H21.1671C19.8605 25.3895 18.7128 26.2714 18.3754 27.5339ZM23.1541 20.3125L27.4763 20.6108L25.8591 16.5913L29.529 14.2901L25.8591 11.9888L27.4763 7.97004L23.1541 8.26762L22.1025 4.06246L18.7799 6.8476L17.5997 5.85879C18.3682 3.31417 20.7185 1.55395 23.3975 1.55395C24.6073 1.55395 25.8222 1.94254 26.9114 2.67711C27.9385 3.36978 29.0906 3.72082 30.3365 3.72082C31.5825 3.72082 32.7345 3.36978 33.7624 2.67711C34.8508 1.94254 36.0657 1.55395 37.2756 1.55395C40.6183 1.55395 43.3377 4.27337 43.3377 7.61612C43.3377 12.0076 42.0159 16.2381 39.5161 19.8495C37.7739 22.366 36.5135 25.1475 35.771 28.1183L34.9982 31.2089C34.8985 31.6098 34.5395 31.8901 34.1257 31.8901C33.6294 31.8901 33.2257 31.4863 33.2257 30.9901V21.778C33.2257 20.1847 31.9299 18.8889 30.3365 18.8889C28.7432 18.8889 27.4474 20.1847 27.4474 21.778V30.9901C27.4474 31.4863 27.0436 31.8901 26.5474 31.8901C26.1335 31.8901 25.7746 31.6098 25.6742 31.2089L24.9013 28.1183C24.3964 26.0973 23.638 24.1457 22.655 22.3103L23.1541 20.3125ZM31.7811 21.778V25.3895H28.892V21.778C28.892 20.9813 29.5399 20.3334 30.3365 20.3334C31.1332 20.3334 31.7811 20.9813 31.7811 21.778ZM23.0241 26.834C23.2003 27.3729 23.3628 27.9167 23.5001 28.4679L24.2729 31.5585C24.5337 32.6044 25.4698 33.3346 26.5474 33.3346C27.8403 33.3346 28.892 32.283 28.892 30.9901V26.834H31.7811V30.9901C31.7811 32.283 32.8328 33.3346 34.1257 33.3346C35.2033 33.3346 36.1394 32.6044 36.4001 31.5585L37.173 28.4679C37.311 27.9153 37.4735 27.3721 37.6497 26.834H39.506C40.1597 26.834 40.7332 27.2746 40.9014 27.9059L43.1196 36.2238H17.5535L19.7716 27.9059C19.9392 27.2746 20.5134 26.834 21.1671 26.834H23.0241Z" fill="#4F4F4F"/>
<path d="M34.5691 3.87402C33.3174 4.7191 31.854 5.16547 30.3358 5.16547C28.8175 5.16547 27.3542 4.7191 26.1024 3.87475L25.2949 5.0723C26.7857 6.07845 28.5293 6.61005 30.3358 6.61005C32.1429 6.61005 33.8865 6.07845 35.3773 5.07158L34.5691 3.87402Z" fill="#4F4F4F"/>
</g>
<defs>
<clipPath id="clip0">
<rect width="45" height="45" fill="white"/>
</clipPath>
</defs>
</svg>
