<svg width="45" height="45" viewBox="0 0 45 45" fill="none" xmlns="http://www.w3.org/2000/svg">
<path d="M30.3828 9.58887C29.125 10.4381 27.6545 10.8866 26.1289 10.8866C24.6032 10.8866 23.1328 10.4381 21.8749 9.58959L21.0635 10.793C22.5615 11.804 24.3136 12.3382 26.1289 12.3382C27.9448 12.3382 29.6969 11.804 31.195 10.7923L30.3828 9.58887Z" fill="#4F4F4F"/>
<path d="M8.70968 0.725806H4.35484V0H0V13.9442L2.90323 20.4765V42.8226C2.90323 44.0231 3.88016 45 5.08065 45C6.28113 45 7.25806 44.0231 7.25806 42.8226V20.1687L4.42306 13.7903H8.70968V0.725806ZM5.80645 20.4765V42.8226C5.80645 43.2232 5.48056 43.5484 5.08065 43.5484C4.68073 43.5484 4.35484 43.2232 4.35484 42.8226V20.1687L1.45161 13.6365V1.45161H2.90323V13.9442L5.80645 20.4765ZM7.25806 12.3387H4.35484V10.8871H7.25806V12.3387ZM7.25806 9.43548H4.35484V7.98387H7.25806V9.43548ZM7.25806 6.53226H4.35484V5.08065H7.25806V6.53226ZM7.25806 3.62903H4.35484V2.17742H7.25806V3.62903Z" fill="#4F4F4F"/>
<path d="M42.7575 14.5991C42.5311 13.3405 41.6565 12.3128 40.4901 11.8628C39.7919 8.38616 36.6847 5.80664 33.1021 5.80664C31.5961 5.80664 30.0944 6.28277 28.7596 7.18277C27.9721 7.71479 27.0867 7.98406 26.1293 7.98406C25.172 7.98406 24.2865 7.71479 23.499 7.18277C22.1642 6.28277 20.6625 5.80664 19.1565 5.80664C14.9969 5.80664 11.6132 9.19035 11.6132 13.3499C11.6132 14.1745 11.6633 15.0041 11.7518 15.8228C11.3105 16.3468 11.0202 16.9913 10.9317 17.7041C9.62811 18.2549 8.70996 19.5462 8.70996 21.0486C8.70996 22.551 9.62811 23.8422 10.9324 24.3931C11.153 26.1844 12.6663 27.5808 14.5164 27.5808C15.1145 27.5808 15.6704 27.4219 16.1683 27.1642C17.5815 29.3649 18.6252 31.7644 19.2596 34.3025L20.0362 37.4083C20.2982 38.46 21.2388 39.1937 22.3217 39.1937C23.6209 39.1937 24.6777 38.137 24.6777 36.8378V27.5808C24.6777 26.7803 25.3288 26.1292 26.1293 26.1292C26.9299 26.1292 27.5809 26.7803 27.5809 27.5808V36.8378C27.5809 38.137 28.6377 39.1937 29.9369 39.1937C31.0198 39.1937 31.9604 38.4599 32.2225 37.409L32.9991 34.3033C33.7024 31.4893 34.8963 28.8532 36.5475 26.4689C37.4185 25.2104 38.1574 23.8611 38.7612 22.4566C38.905 22.4741 39.0458 22.5002 39.1938 22.5002C40.6962 22.5002 41.9875 21.582 42.5383 20.2778C43.929 20.0637 45.0003 18.8697 45.0003 17.4195C45.0003 16.0463 44.04 14.9003 42.7575 14.5991ZM16.6938 23.9518C16.6938 25.1523 15.7169 26.1292 14.5164 26.1292C13.3159 26.1292 12.339 25.1523 12.339 23.9518V23.226C11.1385 23.226 10.1616 22.2491 10.1616 21.0486C10.1616 19.8481 11.1385 18.8712 12.339 18.8712V18.1454C12.339 16.9449 13.3159 15.9679 14.5164 15.9679C15.7169 15.9679 16.6938 16.9449 16.6938 18.1454V18.8712C17.8943 18.8712 18.8713 19.8481 18.8713 21.0486C18.8713 22.2491 17.8943 23.226 16.6938 23.226V23.9518ZM35.3536 25.6422C33.6029 28.1709 32.3371 30.9667 31.5903 33.9512L30.8137 37.057C30.7135 37.4605 30.3528 37.7421 29.9369 37.7421C29.4383 37.7421 29.0325 37.3364 29.0325 36.8378V27.5808C29.0325 25.9797 27.7304 24.6776 26.1293 24.6776C24.5282 24.6776 23.2261 25.9797 23.2261 27.5808V36.8378C23.2261 37.3364 22.8204 37.7421 22.3217 37.7421C21.9058 37.7421 21.5451 37.4605 21.4442 37.0577L20.6676 33.952C19.9817 31.207 18.8509 28.6137 17.3071 26.2432C17.7332 25.725 18.0141 25.0928 18.1004 24.3938C19.4047 23.8422 20.3229 22.551 20.3229 21.0486C20.3229 19.5462 19.4047 18.2549 18.1004 17.7041C17.8798 15.9128 16.3665 14.5163 14.5164 14.5163C14.0207 14.5163 13.5489 14.6172 13.1178 14.7979C13.0858 14.3153 13.0648 13.8319 13.0648 13.3499C13.0648 9.99092 15.7975 7.25825 19.1565 7.25825C20.3722 7.25825 21.593 7.64801 22.6875 8.38688C23.7196 9.08293 24.8773 9.43567 26.1293 9.43567C27.3813 9.43567 28.539 9.08293 29.5718 8.38688C30.6656 7.64801 31.8864 7.25825 33.1021 7.25825C35.8174 7.25825 38.1937 9.09309 38.9427 11.6385C37.277 11.7546 35.9204 12.987 35.6294 14.5991C34.3476 14.9003 33.3874 16.0463 33.3874 17.4195C33.3874 18.8697 34.4587 20.0637 35.8493 20.2778C36.1563 21.0058 36.7029 21.6002 37.3793 21.995C36.8219 23.2703 36.1469 24.4969 35.3536 25.6422ZM42.0971 18.8712H41.3713C41.3713 20.0716 40.3943 21.0486 39.1938 21.0486C37.9933 21.0486 37.0164 20.0716 37.0164 18.8712H36.2906C35.49 18.8712 34.839 18.2201 34.839 17.4195C34.839 16.619 35.49 15.9679 36.2906 15.9679C36.7029 15.9679 37.0977 16.1443 37.3721 16.452L38.4542 15.4838C38.0913 15.0788 37.6203 14.8008 37.1086 14.6499C37.3684 13.7383 38.2002 13.0647 39.1938 13.0647C40.1867 13.0647 41.0171 13.7361 41.2776 14.6462C40.869 14.7667 40.485 14.9663 40.1613 15.2559L41.1288 16.3374C41.3959 16.0993 41.7392 15.9679 42.0971 15.9679C42.8976 15.9679 43.5487 16.619 43.5487 17.4195C43.5487 18.2201 42.8976 18.8712 42.0971 18.8712Z" fill="#4F4F4F"/>
<path d="M38.4675 29.7578C37.267 29.7578 36.29 30.7347 36.29 31.9352C36.29 33.1357 37.267 34.1126 38.4675 34.1126C39.6679 34.1126 40.6449 33.1357 40.6449 31.9352C40.6449 30.7347 39.6679 29.7578 38.4675 29.7578ZM38.4675 32.661C38.0675 32.661 37.7417 32.3359 37.7417 31.9352C37.7417 31.5346 38.0675 31.2094 38.4675 31.2094C38.8674 31.2094 39.1933 31.5346 39.1933 31.9352C39.1933 32.3359 38.8674 32.661 38.4675 32.661Z" fill="#4F4F4F"/>
<path d="M14.5163 35.5645C13.3158 35.5645 12.3389 36.5414 12.3389 37.7419C12.3389 38.9424 13.3158 39.9193 14.5163 39.9193C15.7168 39.9193 16.6937 38.9424 16.6937 37.7419C16.6937 36.5414 15.7168 35.5645 14.5163 35.5645ZM14.5163 38.4677C14.1164 38.4677 13.7905 38.1425 13.7905 37.7419C13.7905 37.3412 14.1164 37.0161 14.5163 37.0161C14.9162 37.0161 15.2421 37.3412 15.2421 37.7419C15.2421 38.1425 14.9162 38.4677 14.5163 38.4677Z" fill="#4F4F4F"/>
<path d="M42.8229 0C41.6224 0 40.6455 0.976935 40.6455 2.17742C40.6455 3.3779 41.6224 4.35484 42.8229 4.35484C44.0234 4.35484 45.0003 3.3779 45.0003 2.17742C45.0003 0.976935 44.0234 0 42.8229 0ZM42.8229 2.90323C42.423 2.90323 42.0971 2.57806 42.0971 2.17742C42.0971 1.77677 42.423 1.45161 42.8229 1.45161C43.2228 1.45161 43.5487 1.77677 43.5487 2.17742C43.5487 2.57806 43.2228 2.90323 42.8229 2.90323Z" fill="#4F4F4F"/>
<path d="M14.5161 2.90332H13.0645V4.35493H14.5161V2.90332Z" fill="#4F4F4F"/>
<path d="M28.3061 0H26.8545V1.45161H28.3061V0Z" fill="#4F4F4F"/>
<path d="M13.0649 20.3223H11.6133V21.7739H13.0649V20.3223Z" fill="#4F4F4F"/>
<path d="M17.4194 20.3223H15.9678V21.7739H17.4194V20.3223Z" fill="#4F4F4F"/>
<path d="M45.0004 25.4033H43.5488V26.8549H45.0004V25.4033Z" fill="#4F4F4F"/>
<path d="M12.3383 29.7578H10.8867V31.2094H12.3383V29.7578Z" fill="#4F4F4F"/>
<path d="M39.9194 18.1455H38.4678V19.5971H39.9194V18.1455Z" fill="#4F4F4F"/>
</svg>
