<svg width="50" height="50" viewBox="0 0 50 50" fill="none" xmlns="http://www.w3.org/2000/svg">
<path d="M46.9915 25.9735C46.6936 24.4817 45.3716 23.3982 43.8501 23.3982H42.5657C44.1528 20.923 45.0192 18.0211 45.0192 15.0678V14.2799C45.0192 11.3595 42.6441 8.98438 39.7245 8.98438H39.3722C38.3248 8.98438 37.2862 9.30789 36.3677 9.91967C35.7135 10.3553 35.1057 10.5859 34.6092 10.5859C34.1127 10.5859 33.505 10.3553 32.8515 9.91967C31.9331 9.30789 30.8937 8.98438 29.8471 8.98438H29.4947C27.5977 8.98438 25.9361 9.99014 25.0008 11.4932C24.0647 9.99014 22.4031 8.98438 20.5061 8.98438H20.1537C19.1063 8.98438 18.0677 9.30789 17.1493 9.91967C16.495 10.3553 15.8873 10.5859 15.3908 10.5859C14.8943 10.5859 14.2865 10.3553 13.6331 9.91967C12.7146 9.30789 11.6752 8.98438 10.6286 8.98438H10.2763C7.35586 8.98438 4.98078 11.3595 4.98078 14.2791V15.067C4.98078 18.0211 5.84721 20.923 7.43434 23.3982H6.1499C4.62844 23.3982 3.30637 24.4817 3.00849 25.9727L0 41.0151H50L46.9915 25.9735ZM40.39 23.6993L38.2087 29.4032C38.119 29.6426 37.8868 29.8044 37.6297 29.8044C37.2894 29.8044 37.0115 29.5273 37.0115 29.1862V22.5974C37.0115 21.273 35.9337 20.1951 34.6092 20.1951C33.2848 20.1951 32.2069 21.273 32.2069 22.5974V29.1862C32.2069 29.5273 31.9291 29.8044 31.5887 29.8044C31.3325 29.8044 31.1003 29.6426 31.0098 29.4032L28.9534 23.9179L28.8293 23.6993C27.2806 21.763 26.2948 19.432 25.9489 16.9929H30.6054V18.5944H31.4062H32.2069H37.0115H37.8123H38.6131V16.9929H43.2703C42.9244 19.4328 41.9387 21.7638 40.39 23.6993ZM32.2069 16.9921V15.3905H37.0115V16.9921H32.2069ZM25.8008 14.2799C25.8008 12.2427 27.4576 10.5859 29.4939 10.5859H29.8463C30.5766 10.5859 31.3085 10.8165 31.9627 11.2522C33.8237 12.4933 35.394 12.4933 37.255 11.2522C37.9092 10.8165 38.6411 10.5859 39.3714 10.5859H39.7237C41.7609 10.5859 43.4177 12.2427 43.4177 14.2791V15.067C43.4177 15.1751 43.4065 15.2824 43.4041 15.3897H38.6131V13.7882H37.8123H37.0115H32.2069H31.4062H30.6054V15.3897H25.8144C25.812 15.2824 25.8008 15.1759 25.8008 15.0678V14.2799ZM25 19.9405C25.4052 21.1545 25.9593 22.3164 26.6528 23.3982H23.3472C24.0407 22.3172 24.5948 21.1545 25 19.9405ZM6.58232 15.0678V14.2791C6.58232 12.2427 8.23911 10.5859 10.2755 10.5859H10.6278C11.3581 10.5859 12.09 10.8165 12.7442 11.2522C14.6052 12.4933 16.1755 12.4933 18.0365 11.2522C18.6907 10.8165 19.4226 10.5859 20.1529 10.5859H20.5053C22.5424 10.5859 24.1992 12.2427 24.1992 14.2791V15.067C24.1992 15.1751 24.188 15.2824 24.1856 15.3897H19.3946V13.7882H18.5938H17.7931H12.9885H12.1877H11.3869V15.3897H6.59593C6.59353 15.2824 6.58232 15.1759 6.58232 15.0678ZM17.7931 15.3905V16.9921H12.9885V15.3905H17.7931ZM6.72966 16.9921H11.3869V18.5936H12.1877H12.9885H17.7931H18.5938H19.3946V16.9921H24.0519C23.706 19.432 22.7202 21.763 21.1715 23.6985L18.9902 29.4024C18.9005 29.6426 18.6683 29.8044 18.4113 29.8044C18.0709 29.8044 17.7931 29.5273 17.7931 29.1862V22.5974C17.7931 21.273 16.7152 20.1951 15.3908 20.1951C14.0663 20.1951 12.9885 21.273 12.9885 22.5974V29.1862C12.9885 29.5273 12.7106 29.8044 12.3703 29.8044C12.114 29.8044 11.8818 29.6426 11.7913 29.4032L9.73495 23.9179L9.61083 23.6993C8.06134 21.763 7.07559 19.432 6.72966 16.9921ZM4.5788 26.2866C4.72854 25.5411 5.38917 24.9998 6.1499 24.9998H8.42969L10.2915 29.9661C10.615 30.8269 11.4502 31.4059 12.3703 31.4059C13.5939 31.4059 14.59 30.4097 14.59 29.1862V22.5974C14.59 22.1562 14.9488 21.7967 15.3908 21.7967C15.8328 21.7967 16.1915 22.1562 16.1915 22.5974V29.1862C16.1915 30.4097 17.1877 31.4059 18.4113 31.4059C19.3306 31.4059 20.1658 30.8269 20.4901 29.9653L22.3519 24.9998H27.6489L29.5107 29.9661C29.8334 30.8269 30.6686 31.4059 31.5887 31.4059C32.8123 31.4059 33.8085 30.4097 33.8085 29.1862V22.5974C33.8085 22.1562 34.1672 21.7967 34.6092 21.7967C35.0513 21.7967 35.41 22.1562 35.41 22.5974V29.1862C35.41 30.4097 36.4062 31.4059 37.6297 31.4059C38.549 31.4059 39.3842 30.8269 39.7085 29.9653L41.5703 24.9998H43.8501C44.6108 24.9998 45.2715 25.5411 45.4212 26.2874L48.0461 39.4136H1.95388L4.5788 26.2866Z" fill="#4F4F4F"/>
</svg>
