<svg width="35" height="35" viewBox="0 0 35 35" fill="none" xmlns="http://www.w3.org/2000/svg">
<path d="M11.3414 8.16211H10.2217C10.2217 10.0914 10.9215 11.9536 12.1924 13.4065L13.0356 12.6691C11.9427 11.4206 11.3414 9.8199 11.3414 8.16211Z" fill="#4F4F4F"/>
<path d="M20.4028 2.88281C18.6179 4.27522 16.3823 4.27578 14.5968 2.88281L13.9082 3.76573C14.9988 4.61674 16.2412 5.06688 17.4998 5.06688C18.7584 5.06688 20.0008 4.61674 21.0914 3.76517L20.4028 2.88281Z" fill="#4F4F4F"/>
<path d="M20.2994 34.7405H35L31.8832 21.2336C31.5881 19.9565 30.4667 19.0641 29.1555 19.0641H22.5389V18.5898C22.8922 17.2243 23.5646 15.9422 24.4934 14.8812C26.121 13.0202 27.0179 10.6346 27.0179 8.16274V4.93898C27.0179 2.23143 24.8148 0.0283203 22.1072 0.0283203C21.0048 0.0283203 19.9394 0.404556 19.0257 1.11672C18.0196 1.9011 16.9799 1.9011 15.9738 1.11672C15.0606 0.404556 13.9946 0.0283203 12.8928 0.0283203C10.1852 0.0283203 7.98213 2.23143 7.98213 4.93898V8.16274C7.98213 10.6346 8.87905 13.0202 10.5066 14.8812C11.4354 15.9428 12.1078 17.2243 12.4611 18.5898V19.0641H5.84453C4.5333 19.0641 3.41188 19.9565 3.11682 21.2341L0 34.7405H14.7006V33.6208H1.40752L4.20802 21.4861C4.38438 20.719 5.05735 20.1838 5.84453 20.1838H12.4611V21.3036H14.1408V22.8975L13.5014 22.9888L13.6598 24.0968L14.1408 24.0285V25.137L13.5014 25.2283L13.6598 26.3363L14.1408 26.268V27.3765L13.5014 27.4678L13.6598 28.5758L14.1408 28.5075V29.616L13.5014 29.7073L13.6598 30.8153L14.1408 30.747V31.6131L17.5 34.9723L20.8592 31.6131V29.7873L21.4986 29.6961L21.3402 28.5881L20.8592 28.6564V27.5478L21.4986 27.4566L21.3402 26.3486L20.8592 26.4169V25.3083L21.4986 25.2171L21.3402 24.1091L20.8592 24.1774V23.0688L21.4986 22.9776L21.3402 21.8696L20.8592 21.9379V21.3036H22.5389V20.1838H29.1555C29.9421 20.1838 30.6151 20.719 30.792 21.4855L33.5925 33.6208H20.2994V34.7405ZM19.7395 31.1495L17.5 33.389L15.2605 31.1495V30.5868L19.7395 29.9469V31.1495ZM19.7395 28.8165L15.2605 29.4564V28.3479L19.7395 27.708V28.8165ZM19.7395 26.577L15.2605 27.217V26.1084L19.7395 25.4685V26.577ZM19.7395 24.3375L15.2605 24.9775V23.8689L19.7395 23.229V24.3375ZM19.7395 22.098L15.2605 22.738V21.3036H19.7395V22.098ZM21.5563 17.9449H19.7395V19.0646H21.4191V20.1838H20.8592H14.1408H13.5809V19.0641H18.6197V17.9443H13.4437C13.0255 16.5474 12.3094 15.2407 11.3498 14.1433C9.90026 12.4872 9.10188 10.363 9.10188 8.16274V4.93898C9.10188 2.84897 10.8022 1.14807 12.8928 1.14807C13.7438 1.14807 14.5707 1.44256 15.2851 1.99964C16.6949 3.09867 18.3057 3.09867 19.7149 1.99964C20.4293 1.44256 21.2568 1.14807 22.1072 1.14807C24.1978 1.14807 25.8981 2.84897 25.8981 4.93898V8.16274C25.8981 10.363 25.0997 12.4872 23.6502 14.1439C22.6906 15.2412 21.974 16.548 21.5563 17.9449Z" fill="#4F4F4F"/>
<path d="M11.3414 6.18652H10.2217V7.30627H11.3414V6.18652Z" fill="#4F4F4F"/>
</svg>
