<svg width="45" height="45" viewBox="0 0 45 45" fill="none" xmlns="http://www.w3.org/2000/svg">
<path d="M29.4723 11.6129C28.7204 11.6129 27.9692 11.7319 27.2398 11.9627L32.0526 5.14452L29.4803 0H22.4995H15.5187L12.9465 5.14452L17.7593 11.9627C17.0291 11.7319 16.2786 11.6129 15.5267 11.6129C11.3671 11.6129 7.9834 14.9966 7.9834 19.1562C7.9834 23.8674 9.40017 28.4037 12.0813 32.2752C13.7318 34.6594 14.9257 37.2956 15.6298 40.1095L16.4057 43.2152C16.6684 44.2662 17.609 45 18.6919 45C19.9911 45 21.0479 43.9432 21.0479 42.644V33.3871C21.0479 32.5865 21.699 31.9355 22.4995 31.9355C23.3001 31.9355 23.9511 32.5865 23.9511 33.3871V42.644C23.9511 43.9432 25.0079 45 26.3071 45C27.39 45 28.3307 44.2662 28.5927 43.2152L29.3686 40.1095C30.0726 37.2956 31.2658 34.6594 32.917 32.2752C35.5989 28.4037 37.0157 23.8674 37.0157 19.1562C37.0157 14.9966 33.6319 11.6129 29.4723 11.6129ZM24.1406 13.836L24.0753 13.8912L25.9776 5.80645H29.8084L24.1406 13.836ZM22.4995 14.2498L20.513 5.80645H24.4861L22.4995 14.2498ZM30.0348 4.35484H26.9523L28.8786 2.04315L30.0348 4.35484ZM27.4815 1.45161L25.4674 3.86927L23.8553 1.45161H27.4815ZM24.0469 4.35484H20.9521L22.4995 2.03444L24.0469 4.35484ZM21.1437 1.45161L19.5317 3.86927L17.5176 1.45161H21.1437ZM16.1204 2.04315L18.0467 4.35484H14.9649L16.1204 2.04315ZM15.1907 5.80645H19.0215L20.9238 13.8905L20.8578 13.8339L15.1907 5.80645ZM31.7238 31.4485C29.9732 33.9772 28.7073 36.773 27.9612 39.7575L27.1853 42.8632C27.0837 43.2668 26.723 43.5484 26.3071 43.5484C25.8085 43.5484 25.4028 43.1427 25.4028 42.644V33.3871C25.4028 31.786 24.1007 30.4839 22.4995 30.4839C20.8984 30.4839 19.5963 31.786 19.5963 33.3871V42.644C19.5963 43.1427 19.1906 43.5484 18.6919 43.5484C18.2761 43.5484 17.9153 43.2668 17.8137 42.864L17.0378 39.7582C16.2924 36.7737 15.0266 33.9779 13.2753 31.4492C10.7625 27.8209 9.43501 23.5706 9.43501 19.1562C9.43501 15.7972 12.1677 13.0645 15.5267 13.0645C16.7294 13.0645 17.9378 13.4463 19.0229 14.1692L19.7719 14.8144L20.9891 16.539C20.0122 16.3423 19.081 15.9598 18.2456 15.3958L17.4334 16.5992C18.9322 17.611 20.6836 18.1452 22.4995 18.1452C24.3155 18.1452 26.0669 17.611 27.5657 16.5992L26.7535 15.3958C25.9181 15.9598 24.9869 16.343 24.0092 16.5397L25.2264 14.8152L25.9754 14.1699C27.0612 13.4463 28.2697 13.0645 29.4723 13.0645C32.8314 13.0645 35.564 15.7972 35.564 19.1562C35.564 23.5706 34.2365 27.8209 31.7238 31.4485Z" fill="#4F4F4F"/>
<path d="M7.98384 7.25781H6.53223V8.70942H7.98384V7.25781Z" fill="#4F4F4F"/>
<path d="M6.53267 8.70996H5.08105V10.1616H6.53267V8.70996Z" fill="#4F4F4F"/>
<path d="M7.98384 10.1611H6.53223V11.6127H7.98384V10.1611Z" fill="#4F4F4F"/>
<path d="M9.43501 8.70996H7.9834V10.1616H9.43501V8.70996Z" fill="#4F4F4F"/>
<path d="M6.53226 31.9355H5.08065C5.08065 34.7364 2.80089 37.0162 0 37.0162V38.4678C2.80089 38.4678 5.08065 40.7476 5.08065 43.5485H6.53226C6.53226 40.7476 8.81202 38.4678 11.6129 38.4678V37.0162C8.81202 37.0162 6.53226 34.7364 6.53226 31.9355ZM5.80645 40.569C5.18226 39.3569 4.19153 38.3662 2.97944 37.742C4.19153 37.1178 5.18226 36.1271 5.80645 34.915C6.43064 36.1271 7.42137 37.1178 8.63347 37.742C7.42137 38.3662 6.43064 39.3569 5.80645 40.569Z" fill="#4F4F4F"/>
<path d="M39.919 1.45117H38.4674C38.4674 4.25206 36.1876 6.53182 33.3867 6.53182V7.98343C36.1876 7.98343 38.4674 10.2632 38.4674 13.0641H39.919C39.919 10.2632 42.1987 7.98343 44.9996 7.98343V6.53182C42.1987 6.53182 39.919 4.25206 39.919 1.45117ZM39.1932 10.0846C38.569 8.87254 37.5783 7.88182 36.3662 7.25762C37.5783 6.63343 38.569 5.6427 39.1932 4.43061C39.8174 5.6427 40.8081 6.63343 42.0202 7.25762C40.8081 7.88182 39.8174 8.87254 39.1932 10.0846Z" fill="#4F4F4F"/>
<path d="M37.7417 34.1133H36.29V35.5649H37.7417V34.1133Z" fill="#4F4F4F"/>
<path d="M36.2905 35.5645H34.8389V37.0161H36.2905V35.5645Z" fill="#4F4F4F"/>
<path d="M37.7417 37.0166H36.29V38.4682H37.7417V37.0166Z" fill="#4F4F4F"/>
<path d="M39.1938 35.5645H37.7422V37.0161H39.1938V35.5645Z" fill="#4F4F4F"/>
</svg>
