<svg width="45" height="45" viewBox="0 0 45 45" fill="none" xmlns="http://www.w3.org/2000/svg">
<path d="M31.4293 38.0407C31.226 37.0267 30.3282 36.2907 29.2932 36.2907H28.7278C29.3927 34.8275 29.7577 33.2257 29.7577 31.618V31.2631C29.7577 29.2323 28.1058 27.5811 26.075 27.5811C25.1351 27.5811 24.2452 27.9309 23.5702 28.5667C22.9141 29.1851 22.0852 29.1844 21.4291 28.5674C20.7541 27.9309 19.8643 27.5811 18.9244 27.5811C16.8935 27.5811 15.2416 29.2323 15.2416 31.2631V31.618C15.2416 33.2249 15.6067 34.8275 16.2715 36.2907H15.7061C14.6719 36.2907 13.7733 37.0267 13.5708 38.0407L12.1787 45.0004H32.8206L31.4293 38.0407ZM16.6932 31.2631C16.6932 30.0336 17.6941 29.0327 18.9244 29.0327C19.4927 29.0327 20.029 29.2424 20.434 29.6242C21.6294 30.7485 23.3699 30.7492 24.5653 29.6235C24.9703 29.2424 25.5067 29.0327 26.075 29.0327C27.3052 29.0327 28.3061 30.0336 28.3061 31.2631V31.618C28.3061 33.1386 27.9468 34.6598 27.2668 36.0193C27.0287 36.4954 26.8226 36.994 26.6542 37.4985L25.7469 40.2195C25.6627 40.475 25.4254 40.6456 25.1576 40.6456C24.8404 40.6456 24.5748 40.4082 24.5392 40.0925L24.0268 35.4807C23.9404 34.7012 23.2835 34.1133 22.4997 34.1133C21.7158 34.1133 21.0589 34.7012 20.9726 35.4807L20.4602 40.0925C20.4253 40.4082 20.1589 40.6456 19.8418 40.6456C19.5739 40.6456 19.3366 40.475 19.2517 40.2202L18.3444 37.4992C18.176 36.9948 17.9699 36.4961 17.7319 36.02C17.0525 34.6606 16.6932 33.1386 16.6932 31.618V31.2631ZM13.9497 43.5488L14.9941 38.3259C15.0616 37.9877 15.3614 37.7423 15.7061 37.7423H16.8877C16.9139 37.8149 16.9444 37.8861 16.9683 37.9586L17.8756 40.6797C18.1586 41.5274 18.949 42.0972 19.8425 42.0972C20.9007 42.0972 21.7862 41.3039 21.9031 40.2529L22.4155 35.6411C22.4256 35.5548 22.5752 35.5548 22.5846 35.6411L23.097 40.2529C23.2131 41.3039 24.0993 42.0972 25.1576 42.0972C26.051 42.0972 26.8414 41.5274 27.1245 40.6797L28.0318 37.9586C28.0557 37.8861 28.0862 37.8149 28.1123 37.7423H29.2939C29.6387 37.7423 29.9385 37.9877 30.006 38.3259L31.0497 43.5488H13.9497Z" fill="#4F4F4F"/>
<path d="M29.0546 20.7602C29.8036 19.8218 30.3015 18.675 30.4409 17.4194H31.2095V0H25.4031V17.4194H25.9953C25.6948 18.262 24.8965 18.871 23.9515 18.871H22.4998H21.0482C20.1032 18.871 19.3048 18.262 19.0044 17.4194H19.5966V0H13.7902V17.4194H14.561C14.6974 18.6445 15.1794 19.8044 15.9523 20.7704C12.4801 22.9558 10.1611 26.8127 10.1611 31.2097V34.8387H14.516V31.2097C14.516 26.8077 18.0978 23.2258 22.4998 23.2258C26.9019 23.2258 30.4837 26.8077 30.4837 31.2097V34.8387H34.8386V31.2097C34.8386 26.9521 32.6372 23.0102 29.0546 20.7602ZM18.7322 19.464C18.206 19.6331 17.7001 19.845 17.2065 20.0809L17.237 20.054C16.5802 19.3086 16.165 18.3919 16.0249 17.4194H17.4925C17.6594 18.2388 18.1138 18.9465 18.7322 19.464ZM15.2418 1.45161H18.145V5.08065H15.2418V1.45161ZM15.2418 6.53226H18.145V7.98387H15.2418V6.53226ZM15.2418 9.43548H18.145V10.8871H15.2418V9.43548ZM15.2418 15.9677V12.3387H18.145V15.9677H15.2418ZM13.0644 31.2097V33.3871H11.6127V31.2097C11.6127 25.928 15.3942 21.5165 20.3914 20.5316C20.35 20.6978 20.3224 20.8691 20.3224 21.0484C20.3224 21.3837 20.4052 21.698 20.5409 21.9818C16.2753 22.8861 13.0644 26.6792 13.0644 31.2097ZM22.4998 21.7742C22.0999 21.7742 21.774 21.449 21.774 21.0484C21.774 20.6477 22.0999 20.3226 22.4998 20.3226C22.8998 20.3226 23.2256 20.6477 23.2256 21.0484C23.2256 21.449 22.8998 21.7742 22.4998 21.7742ZM26.8547 1.45161H29.7579V5.08065H26.8547V1.45161ZM26.8547 6.53226H29.7579V7.98387H26.8547V6.53226ZM26.8547 9.43548H29.7579V10.8871H26.8547V9.43548ZM26.8547 12.3387H29.7579V15.9677H26.8547V12.3387ZM24.5256 20.2645C26.0149 20.025 27.2074 18.8884 27.5072 17.4194H28.974C28.6481 19.6802 26.8336 21.4628 24.5561 21.735C24.6286 21.518 24.6773 21.2894 24.6773 21.0484C24.6773 20.7711 24.6199 20.5084 24.5256 20.2645ZM33.3869 33.3871H31.9353V31.2097C31.9353 27.4507 29.7209 24.2078 26.5324 22.6923C27.0601 22.4644 27.5493 22.1669 27.9942 21.8148C31.3249 23.7673 33.3869 27.3404 33.3869 31.2097V33.3871Z" fill="#4F4F4F"/>
</svg>
