<svg width="45" height="45" viewBox="0 0 45 45" fill="none" xmlns="http://www.w3.org/2000/svg">
<path d="M0 36.29V42.0965H1.45161V37.7417H10.1613V36.29H0Z" fill="#4F4F4F"/>
<path d="M1.45161 30.4835V26.8545H0V31.9351H10.1613V30.4835H1.45161Z" fill="#4F4F4F"/>
<path d="M10.1614 33.3867H2.90332V34.8383H10.1614V33.3867Z" fill="#4F4F4F"/>
<path d="M10.1614 39.1934H2.90332V40.645H10.1614V39.1934Z" fill="#4F4F4F"/>
<path d="M0 5.80664V10.8873H1.45161V7.25825H7.98387V5.80664H0Z" fill="#4F4F4F"/>
<path d="M9.43548 0H0V1.45161H9.43548V0Z" fill="#4F4F4F"/>
<path d="M9.43558 2.90332H2.90332V4.35493H9.43558V2.90332Z" fill="#4F4F4F"/>
<path d="M26.7539 9.58887C25.4961 10.4381 24.0256 10.8866 22.5 10.8866C20.9743 10.8866 19.5038 10.4381 18.246 9.58959L17.4346 10.793C18.9326 11.804 20.6847 12.3382 22.5 12.3382C24.3159 12.3382 26.068 11.804 27.5661 10.7923L26.7539 9.58887Z" fill="#4F4F4F"/>
<path d="M1.45161 2.90332H0V4.35493H1.45161V2.90332Z" fill="#4F4F4F"/>
<path d="M1.45161 12.3389H0V13.7905H1.45161V12.3389Z" fill="#4F4F4F"/>
<path d="M1.45161 23.9512H0V25.4028H1.45161V23.9512Z" fill="#4F4F4F"/>
<path d="M1.45161 33.3867H0V34.8383H1.45161V33.3867Z" fill="#4F4F4F"/>
<path d="M1.45161 43.5488H0V45.0004H1.45161V43.5488Z" fill="#4F4F4F"/>
<path d="M13.0649 39.1934H11.6133V40.645H13.0649V39.1934Z" fill="#4F4F4F"/>
<path d="M34.8389 36.29V37.7417H43.5485V42.0965H45.0002V36.29H34.8389Z" fill="#4F4F4F"/>
<path d="M43.5485 26.8545V30.4835H34.8389V31.9351H45.0002V26.8545H43.5485Z" fill="#4F4F4F"/>
<path d="M42.0969 33.3867H34.8389V34.8383H42.0969V33.3867Z" fill="#4F4F4F"/>
<path d="M42.0969 39.1934H34.8389V40.645H42.0969V39.1934Z" fill="#4F4F4F"/>
<path d="M37.0166 5.80664V7.25825H43.5489V10.8873H45.0005V5.80664H37.0166Z" fill="#4F4F4F"/>
<path d="M44.9999 0H35.5645V1.45161H44.9999V0Z" fill="#4F4F4F"/>
<path d="M42.0967 2.90332H35.5645V4.35493H42.0967V2.90332Z" fill="#4F4F4F"/>
<path d="M45.0004 2.90332H43.5488V4.35493H45.0004V2.90332Z" fill="#4F4F4F"/>
<path d="M45.0004 12.3389H43.5488V13.7905H45.0004V12.3389Z" fill="#4F4F4F"/>
<path d="M45.0004 23.9512H43.5488V25.4028H45.0004V23.9512Z" fill="#4F4F4F"/>
<path d="M45.0004 33.3867H43.5488V34.8383H45.0004V33.3867Z" fill="#4F4F4F"/>
<path d="M45.0004 43.5488H43.5488V45.0004H45.0004V43.5488Z" fill="#4F4F4F"/>
<path d="M33.3872 39.1934H31.9355V40.645H33.3872V39.1934Z" fill="#4F4F4F"/>
<path d="M36.834 16.1312C36.9443 15.2124 37.0161 14.2862 37.0161 13.3499C37.0161 9.19035 33.6324 5.80664 29.4728 5.80664C27.9668 5.80664 26.4651 6.28277 25.1303 7.18277C24.3428 7.71479 23.4573 7.98406 22.5 7.98406C21.5427 7.98406 20.6572 7.71479 19.8697 7.18277C18.5349 6.28277 17.0332 5.80664 15.5272 5.80664C11.3676 5.80664 7.98387 9.19035 7.98387 13.3499C7.98387 14.287 8.05573 15.2145 8.16677 16.1341C7.74726 16.1944 7.34226 16.2575 6.95105 16.3229C6.57218 15.6798 5.87976 15.2421 5.08065 15.2421C3.93823 15.2421 3.00919 16.1291 2.92065 17.2483C0.940645 17.8891 0 18.6404 0 19.597C0 21.6648 4.97831 22.7491 10.2535 23.3196C10.7768 24.4076 11.3843 25.4615 12.0818 26.4689C13.7323 28.8532 14.9262 31.4893 15.6302 34.3033L16.4069 37.409C16.6689 38.4599 17.6095 39.1937 18.6924 39.1937C19.9916 39.1937 21.0484 38.137 21.0484 36.8378V27.5808C21.0484 26.7803 21.6994 26.1292 22.5 26.1292C23.3006 26.1292 23.9516 26.7803 23.9516 27.5808V36.8378C23.9516 38.137 25.0084 39.1937 26.3076 39.1937C27.3905 39.1937 28.3311 38.4599 28.5931 37.409L29.3698 34.3033C30.0731 31.4893 31.267 28.8532 32.9182 26.4689C33.6143 25.4637 34.2203 24.412 34.7436 23.3262C35.9238 23.1941 37.0336 23.0424 38.0504 22.8725C38.4293 23.5149 39.121 23.9518 39.9194 23.9518C41.0618 23.9518 41.9908 23.0649 42.0794 21.945C44.0594 21.3041 45 20.5536 45 19.597C45 18.9604 44.9993 17.302 36.834 16.1312ZM5.08065 16.6937C5.48056 16.6937 5.80645 17.0196 5.80645 17.4195C5.80645 17.8195 5.48056 18.1454 5.08065 18.1454C4.68073 18.1454 4.35484 17.8195 4.35484 17.4195C4.35484 17.0196 4.68073 16.6937 5.08065 16.6937ZM1.44871 19.6224C1.45016 19.618 1.62218 19.1992 3.2879 18.6512C3.68056 19.221 4.33669 19.597 5.08065 19.597C6.16863 19.597 7.06427 18.7928 7.22468 17.7491C7.59847 17.6866 7.98532 17.6264 8.38597 17.5691C8.65379 19.012 9.045 20.4258 9.5821 21.7889C4.47024 21.1516 1.67371 20.2277 1.44871 19.6224ZM31.7243 25.6422C29.9736 28.1709 28.7078 30.9667 27.961 33.9512L27.1844 37.057C27.0842 37.4605 26.7235 37.7421 26.3076 37.7421C25.809 37.7421 25.4032 37.3364 25.4032 36.8378V27.5808C25.4032 25.9797 24.1011 24.6776 22.5 24.6776C20.8989 24.6776 19.5968 25.9797 19.5968 27.5808V36.8378C19.5968 37.3364 19.191 37.7421 18.6924 37.7421C18.2765 37.7421 17.9158 37.4605 17.8149 37.0577L17.0383 33.952C16.2922 30.9674 15.0264 28.1716 13.275 25.6429C12.7945 24.9491 12.3714 24.2262 11.9787 23.4902C17.1247 23.9409 22.0703 23.9518 22.5 23.9518C26.2038 23.9518 29.8154 23.7929 33.014 23.5011C32.6236 24.2334 32.2026 24.952 31.7243 25.6422ZM33.7573 21.9689C30.3975 22.3108 26.5108 22.5002 22.5 22.5002C18.0711 22.5002 14.3187 22.2904 11.2464 21.9769C10.0633 19.2711 9.43548 16.3512 9.43548 13.3499C9.43548 9.99092 12.1681 7.25825 15.5272 7.25825C16.7429 7.25825 17.9637 7.64874 19.0582 8.38688C20.0903 9.08293 21.248 9.43567 22.5 9.43567C23.752 9.43567 24.9097 9.08293 25.9425 8.38688C27.0363 7.64874 28.2571 7.25825 29.4728 7.25825C32.8319 7.25825 35.5645 9.99092 35.5645 13.3499C35.5645 16.3475 34.9374 19.2653 33.7573 21.9689ZM39.9194 22.5002C39.5194 22.5002 39.1936 22.1743 39.1936 21.7744C39.1936 21.3745 39.5194 21.0486 39.9194 21.0486C40.3193 21.0486 40.6452 21.3745 40.6452 21.7744C40.6452 22.1743 40.3193 22.5002 39.9194 22.5002ZM41.7121 20.5434C41.3194 19.9729 40.6626 19.597 39.9194 19.597C38.8328 19.597 37.9379 20.399 37.7761 21.4405C37.035 21.5646 36.254 21.68 35.4201 21.7831C35.9565 20.4215 36.3477 19.0098 36.6148 17.5683C41.9487 18.3355 43.4388 19.2987 43.552 19.5716C43.5498 19.5766 43.3786 19.9947 41.7121 20.5434Z" fill="#4F4F4F"/>
</svg>
